<svg width="507" height="187" viewBox="0 0 507 187" fill="none" xmlns="http://www.w3.org/2000/svg">
<path fill-rule="evenodd" clip-rule="evenodd" d="M76.4038 2.33866C80.3969 0.0332706 85.3165 0.0332733 89.3095 2.33866L158.558 42.3191C162.551 44.6245 165.011 48.885 165.011 53.4958V133.457C165.011 138.068 162.551 142.328 158.558 144.633L89.3095 184.614C85.3165 186.919 80.3968 186.919 76.4038 184.614L7.15563 144.633C3.16258 142.328 0.702759 138.068 0.702759 133.457V53.4958C0.702759 48.885 3.16258 44.6245 7.15563 42.3191L76.4038 2.33866ZM81.5437 46.4122L84.8444 46.8735H84.8509L106.662 49.9226V53.2483L84.8509 65.3045V88.313H94.2365V106.55H111.917V88.313H128.585L140.648 147.623L99.0224 171.176V149.502C99.0224 147.502 98.2482 145.579 96.862 144.136L88.44 135.373C85.3931 132.203 80.3207 132.203 77.2738 135.373L68.8517 144.136C67.4656 145.579 66.6914 147.502 66.6914 149.502V171.053L25.284 147.623L37.1267 88.313H52.3256V106.55H70.0063V88.313H81.0831V46.8735H81.5437V46.4122ZM251.341 103.887H273.628C271.838 125.198 256.222 143.905 229.706 143.905C202.051 143.905 184.645 122.595 184.645 93.4763C184.645 64.3577 202.051 43.0474 229.706 43.0474C256.222 43.0474 271.35 62.0802 273.628 83.2278H251.341C250.203 71.3526 242.882 60.4535 229.38 60.4535C213.926 60.4535 205.793 72.3287 205.793 93.4763C205.793 114.136 213.926 126.662 229.38 126.662C242.882 126.662 250.203 115.6 251.341 103.887ZM299.728 122.107L292.896 142.278H273.212L309 44.6741H327.057L362.845 142.278H342.186L335.353 122.107H299.728ZM317.622 69.5632L304.934 106.653H330.148L317.622 69.5632ZM440.359 112.346C440.359 91.2916 422.484 87.5302 407.118 84.2968C395.534 81.8593 385.376 79.7218 385.376 70.7019C385.376 64.0323 391.557 59.1521 400.504 59.1521C410.915 59.1521 418.561 65.3337 418.724 75.9075H438.407C437.757 56.3867 422.791 43.2101 401.48 43.2101C380.658 43.2101 366.343 55.8986 366.343 72.8167C366.343 94.8072 384.632 98.8921 399.988 102.322C411.1 104.804 420.676 106.943 420.676 115.275C420.676 123.246 413.681 127.963 402.944 127.963C390.581 127.963 382.61 121.131 382.285 110.557H362.601C363.252 130.403 380.007 143.905 402.456 143.905C426.857 143.905 440.359 129.264 440.359 112.346ZM506.926 125.198V142.278H450.153V44.6741H470.487V125.198H506.926Z" fill="url(#paint0_linear)"/>
<defs>
<linearGradient id="paint0_linear" x1="189.963" y1="162.207" x2="95.3468" y2="-23.9068" gradientUnits="userSpaceOnUse">
<stop stop-color="#0F33B5"/>
<stop offset="0.338542" stop-color="#056DFF"/>
<stop offset="1" stop-color="#9AEBFB"/>
</linearGradient>
</defs>
</svg>
