<svg width="201" height="46" viewBox="0 0 201 46" fill="none" xmlns="http://www.w3.org/2000/svg">
<path d="M8.23398 44.724V34.6292H13.711C20.8525 34.6292 25.7925 30.0113 25.7925 23.2993C25.7925 16.8021 21.0136 12.5065 13.711 12.5065H0.286987V44.724H8.23398ZM12.5834 19.0037C15.8588 19.0037 17.7382 20.5609 17.7382 23.4067C17.7382 26.3063 15.8588 28.1857 12.5834 28.1857H8.23398V19.0037H12.5834Z" fill="#0F33B5"/>
<path d="M51.2977 36.1864H43.995C43.6192 38.0657 41.9009 39.5155 39.2161 39.5155C35.9943 39.5155 34.115 37.5288 33.9539 34.0922H51.1903C51.2977 33.3405 51.3514 32.8035 51.3514 31.8907C51.3514 25.6083 47.0557 19.648 39.2161 19.648C32.0745 19.648 26.8123 24.8028 26.8123 32.374C26.8123 40.5894 32.3967 45.261 39.3772 45.261C45.6059 45.261 50.1164 41.6096 51.2977 36.1864ZM39.1087 24.9639C41.9546 24.9639 43.7803 26.8433 43.8339 29.7966H34.115C34.2761 26.8433 36.048 24.9639 39.1087 24.9639Z" fill="#0F33B5"/>
<path d="M69.1671 44.4555V38.012C68.3079 38.6027 67.5562 38.7638 66.4286 38.7638C64.8177 38.7638 63.3679 38.1194 63.3679 35.8642V26.1989H69.704V20.185H63.3679V12.5065H57.1392L56.0653 20.185H51.4474V26.1989H56.0653V36.2938C56.0653 42.3614 59.5555 45.261 64.8177 45.261C66.2675 45.261 67.8247 45.1536 69.1671 44.4555Z" fill="#0F33B5"/>
<path d="M87.1842 40.8579L88.2581 44.724H94.4868V20.185H87.1842V33.5553C87.1842 36.9381 85.6807 38.9785 83.1033 38.9785C80.7406 38.9785 79.3982 37.4751 79.3982 34.3607V20.185H72.0956V37.2066C72.0956 42.5762 75.5321 45.261 80.0963 45.261C83.3717 45.261 85.7881 43.7038 87.1842 40.8579Z" fill="#0F33B5"/>
<path d="M113.43 40.8579L114.504 44.724H120.733V20.185H113.43V33.5553C113.43 36.9381 111.927 38.9785 109.349 38.9785C106.987 38.9785 105.644 37.4751 105.644 34.3607V20.185H98.3416V37.2066C98.3416 42.5762 101.778 45.261 106.342 45.261C109.618 45.261 112.034 43.7038 113.43 40.8579Z" fill="#0F33B5"/>
<path d="M132.051 44.724V31.5685C132.051 28.0783 133.555 25.9304 136.293 25.9304C138.495 25.9304 139.837 27.4339 139.837 30.602V44.724H147.14V31.5685C147.14 28.0783 148.643 25.9304 151.382 25.9304C153.637 25.9304 154.979 27.4339 154.979 30.602V44.724H162.282V28.6689C162.282 22.7087 159.007 19.648 154.604 19.648C151.167 19.648 148.214 21.6348 146.603 25.0176C145.422 21.4737 142.844 19.648 139.461 19.648C136.347 19.648 133.823 21.2589 132.051 24.0511L130.977 20.185H124.749V44.724H132.051Z" fill="#0F33B5"/>
<path d="M190.173 6.33057C181.986 11.3452 174.96 18.23 169.608 26.4827V39.4898C177.638 27.1133 188.176 16.7875 200.454 9.26446L190.173 6.33057Z" fill="#9AEBFB"/>
<path d="M190.173 6.32964L179.892 3.39575C175.798 5.90346 172.285 9.34574 169.608 13.4718V26.4817C174.961 18.2297 181.987 11.3451 190.173 6.32964Z" fill="#51BCF8"/>
<path d="M179.889 3.39666L169.608 0.462769V13.4727C172.285 9.3474 175.797 5.90524 179.889 3.39666Z" fill="#056DFF"/>
</svg>
