<?xml version="1.0" encoding="UTF-8" standalone="no"?>
<svg
   xmlns:dc="http://purl.org/dc/elements/1.1/"
   xmlns:cc="http://creativecommons.org/ns#"
   xmlns:rdf="http://www.w3.org/1999/02/22-rdf-syntax-ns#"
   xmlns:svg="http://www.w3.org/2000/svg"
   xmlns="http://www.w3.org/2000/svg"
   xmlns:sodipodi="http://sodipodi.sourceforge.net/DTD/sodipodi-0.dtd"
   xmlns:inkscape="http://www.inkscape.org/namespaces/inkscape"
   width="3011"
   height="1031"
   viewBox="0 0 3011 1031"
   version="1.1"
   id="svg20"
   sodipodi:docname="tuun_logo.svg"
   style="fill:none"
   inkscape:version="0.92.2 5c3e80d, 2017-08-06"
   inkscape:export-filename="/Users/willie/Downloads/tuun_stuff/tuun_logo/tuun_logo_space.png"
   inkscape:export-xdpi="30"
   inkscape:export-ydpi="30">
  <metadata
     id="metadata26">
    <rdf:RDF>
      <cc:Work
         rdf:about="">
        <dc:format>image/svg+xml</dc:format>
        <dc:type
           rdf:resource="http://purl.org/dc/dcmitype/StillImage" />
        <dc:title></dc:title>
      </cc:Work>
    </rdf:RDF>
  </metadata>
  <defs
     id="defs24" />
  <sodipodi:namedview
     pagecolor="#ffffff"
     bordercolor="#666666"
     borderopacity="1"
     objecttolerance="10"
     gridtolerance="10"
     guidetolerance="10"
     inkscape:pageopacity="0"
     inkscape:pageshadow="2"
     inkscape:window-width="1922"
     inkscape:window-height="1038"
     id="namedview22"
     showgrid="false"
     inkscape:showpageshadow="false"
     fit-margin-top="5"
     fit-margin-left="5"
     fit-margin-right="5"
     fit-margin-bottom="5"
     inkscape:zoom="0.16317849"
     inkscape:cx="-160.65579"
     inkscape:cy="-884.90987"
     inkscape:window-x="0"
     inkscape:window-y="0"
     inkscape:window-maximized="0"
     inkscape:current-layer="svg20"
     inkscape:snap-global="true">
    <inkscape:grid
       type="xygrid"
       id="grid15"
       originx="5.5000085"
       originy="5.4999004" />
  </sodipodi:namedview>
  <g
     id="g833"
     transform="translate(5.5000085,5.2153057)">
    <path
       style="fill:#0033ad"
       inkscape:connector-curvature="0"
       id="path2"
       d="m 954.47575,729.94272 c -81.06,163.188 -249.436,275.34198 -444.007,275.34198 -156.533,0 -296.111,-72.58798 -386.91,-185.93898 l 14.469,-9.556 c 13.668,-7.913 30.355,-18.566 49.207,-30.602 78.464,-50.093 194.424,-124.125 286.244,-124.125 73.428,0 146.453,34.633 209.198,64.391 47.26,22.414 88.688,42.062 120.063,42.062 61.891,0 115.118,-25.995 148.539,-44.562 z" />
    <path
       style="fill:#0756d7"
       inkscape:connector-curvature="0"
       id="path4"
       d="m 954.65575,730.18972 c 32.941,-66.315 51.46195,-141.058 51.46195,-220.127 0,-13.8 -0.5639,-27.468 -1.6699,-40.982 l -4.71505,-1.917 c -36.627,17.35 -73.854,38.542 -111.195,59.8 -82.546,46.991 -165.65,94.299 -244.06,101.118 -43.762,3.805 -110.444,-32.109 -179.999,-69.571 -71.782,-38.66 -146.622,-78.968 -202.488,-78.968 -88.598,0 -143.686,21.681 -197.9878,43.054 -13.1168,5.162 -26.1878,10.307 -39.6742,15.123 l -7.97523,6.704 c 7.10713,103.754 46.15643,198.731 107.38823,275.17 l 14.467,-9.554 c 13.668,-7.913 30.355,-18.566 49.207,-30.602 78.464,-50.093 194.424,-124.125 286.244,-124.125 73.428,0 146.453,34.633 209.198,64.391 47.26,22.414 88.688,42.062 120.063,42.062 61.891,0 115.118,-25.995 148.539,-44.562 z" />
    <path
       style="fill:#2f83f9"
       inkscape:connector-curvature="0"
       id="path6"
       d="m 1004.2667,469.22072 -4.71395,-1.916 c -36.627,17.35 -73.854,38.542 -111.195,59.799 -82.546,46.991 -165.651,94.3 -244.06,101.118 -43.763,3.806 -110.445,-32.109 -180,-69.57 -71.781,-38.66 -146.622,-78.969 -202.488,-78.969 -88.598,0 -143.685,21.682 -197.9874,43.054 -13.1168,5.163 -26.1879,10.307 -39.6742,15.124 l -7.97525,6.704 C 15.39523,533.21172 15,521.75372 15,510.20272 c 0,-28.233 2.36157,-55.916 6.89797,-82.86 l 5.96228,1.585 c 100.2025,0 171.6075,-41.308 241.0145,-81.46 69.491,-40.201 136.978,-79.243 229.358,-74.506 68.834,3.53 121.445,40.425 178.876,80.7 78.715,55.201 166.485,116.753 317.492,107.449 2.72,-0.94 5.60795,-1.934 8.63405,-2.972 0.384,3.682 0.729,7.376 1.0319,11.082 z" />
    <path
       style="fill:#51bcf8"
       inkscape:connector-curvature="0"
       id="path8"
       d="m 1003.1527,458.35672 c -3.0259,1.039 -5.91295,2.033 -8.63395,2.973 -151.006,9.303 -238.776,-52.248 -317.492,-107.449 -57.431,-40.275 -110.041,-77.17 -178.875,-80.7 -92.381,-4.738 -159.868,34.304 -229.359,74.505 -69.406,40.152 -140.811,81.461 -241.014,81.461 l -5.96234,-1.585 c 18.10914,-107.559 70.87554,-203.353 146.41934,-275.5 207.281,-39.3751 218.521,-31.506 374.796,77.895 l 3.397,2.378 c 65.317,45.722 216.802,-11.569 303.544,-44.374 l 0.005,-0.002 c 9.902,-3.745 18.96,-7.171 26.95,-10.088 l 0.84,0.099 c 68.66,75.826 114.172,173.006 125.38495,280.387 z" />
    <path
       style="fill:#9aebfb"
       inkscape:connector-curvature="0"
       id="path10"
       d="m 877.73175,178.01572 -0.84,-0.098 c -7.991,2.918 -17.051,6.344 -26.954,10.089 -86.743,32.806 -238.229,90.097 -303.545,44.375 l -3.398,-2.378 c -156.274,-109.401 -167.514,-117.2702 -374.796,-77.895 C 257.13975,67.165619 377.65375,15 510.35075,15 c 145.706,0 276.722,62.894619 367.381,163.01572 z" />
    <path
       style="fill:#0033ad"
       inkscape:connector-curvature="0"
       id="path12"
       d="m 1425.5138,809.55572 v -478.852 h 162.63 v -123.477 h -473.83 v 123.477 h 162.63 v 478.852 z" />
    <path
       style="fill:#0033ad"
       inkscape:connector-curvature="0"
       id="path14"
       d="m 1886.9338,737.27572 20.0799,72.28 h 116.45 v -458.774 h -136.5299 v 249.966 c 0,63.245 -28.11,101.392 -76.29,101.392 -44.1701,0 -69.27,-28.108 -69.27,-86.333 v -265.025 h -136.53 v 318.23 c 0,100.388 64.25,150.583 149.58,150.583 61.24,0 106.41,-29.113 132.51,-82.319 z" />
    <path
       style="fill:#0033ad"
       inkscape:connector-curvature="0"
       id="path16"
       d="m 2356.3038,737.27572 20.08,72.28 h 116.4499 v -458.774 h -136.53 v 249.966 c 0,63.245 -28.11,101.392 -76.3,101.392 -44.17,0 -69.26,-28.108 -69.26,-86.333 v -265.025 h -136.53 v 318.23 c 0,100.388 64.25,150.583 149.58,150.583 61.23,0 106.41,-29.113 132.5101,-82.319 z" />
    <path
       style="fill:#0033ad"
       inkscape:connector-curvature="0"
       id="path18"
       d="m 2678.6738,809.55572 v -245.951 c 0,-65.252 31.1199,-105.408 88.34,-105.408 45.17,0 74.29,28.109 74.29,87.338 v 264.021 h 136.52 v -300.161 c 0,-111.431 -64.24,-168.652 -151.58,-168.652 -62.24,0 -113.44,30.117 -147.57,82.318 l -21.08,-72.279 h -115.45 v 458.774 z" />
  </g>
  <rect
     style="opacity:1;fill:none;fill-opacity:1;stroke:#ffffce;stroke-width:1;stroke-linecap:square;stroke-linejoin:round;stroke-miterlimit:10;stroke-dasharray:none;stroke-dashoffset:0;stroke-opacity:1;paint-order:fill markers stroke"
     id="rect17"
     width="3000"
     height="1020"
     x="5.5"
     y="5.5" />
</svg>
