<?xml version="1.0" encoding="UTF-8" standalone="no"?>
<svg
   xmlns:dc="http://purl.org/dc/elements/1.1/"
   xmlns:cc="http://creativecommons.org/ns#"
   xmlns:rdf="http://www.w3.org/1999/02/22-rdf-syntax-ns#"
   xmlns:svg="http://www.w3.org/2000/svg"
   xmlns="http://www.w3.org/2000/svg"
   xmlns:sodipodi="http://sodipodi.sourceforge.net/DTD/sodipodi-0.dtd"
   xmlns:inkscape="http://www.inkscape.org/namespaces/inkscape"
   width="3010"
   height="1030"
   viewBox="0 0 3010 1030"
   version="1.1"
   id="svg20"
   sodipodi:docname="tuun_logo.svg"
   style="fill:none"
   inkscape:version="0.92.2 5c3e80d, 2017-08-06"
   inkscape:export-filename="/Users/willie/Downloads/tuun_stuff/tuun_logo/tuun_logo_space.png"
   inkscape:export-xdpi="30"
   inkscape:export-ydpi="30">
  <metadata
     id="metadata26">
    <rdf:RDF>
      <cc:Work
         rdf:about="">
        <dc:format>image/svg+xml</dc:format>
        <dc:type
           rdf:resource="http://purl.org/dc/dcmitype/StillImage" />
        <dc:title></dc:title>
      </cc:Work>
    </rdf:RDF>
  </metadata>
  <defs
     id="defs24">
    <clipPath
       clipPathUnits="userSpaceOnUse"
       id="clipPath888">
      <rect
         style="opacity:1;fill:#000000;fill-opacity:1;stroke:none;stroke-width:0.4505032;stroke-linecap:round;stroke-linejoin:miter;stroke-miterlimit:4;stroke-dasharray:none;stroke-dashoffset:0;stroke-opacity:1;paint-order:fill markers stroke"
         id="rect890"
         width="1075.5094"
         height="291.09225"
         x="-2745.4597"
         y="3010.4272"
         transform="scale(-1,1)" />
    </clipPath>
    <clipPath
       clipPathUnits="userSpaceOnUse"
       id="clipPath900">
      <rect
         style="opacity:1;fill:#ffac91;fill-opacity:0.57345976;stroke:none;stroke-width:0.87685037;stroke-linecap:round;stroke-linejoin:miter;stroke-miterlimit:4;stroke-dasharray:none;stroke-dashoffset:0;stroke-opacity:1;paint-order:fill markers stroke"
         id="rect902"
         width="1017.291"
         height="497.92081"
         x="-2719.4148"
         y="3002.7673"
         transform="scale(-1,1)" />
    </clipPath>
    <clipPath
       clipPathUnits="userSpaceOnUse"
       id="clipPath912">
      <rect
         style="opacity:1;fill:#f3abe4;fill-opacity:0.57345976;stroke:none;stroke-width:0.87685037;stroke-linecap:round;stroke-linejoin:miter;stroke-miterlimit:4;stroke-dasharray:none;stroke-dashoffset:0;stroke-opacity:1;paint-order:fill markers stroke"
         id="rect914"
         width="1066.3169"
         height="655.72394"
         x="-2748.5239"
         y="3022.6841"
         transform="scale(-1,1)" />
    </clipPath>
    <clipPath
       clipPathUnits="userSpaceOnUse"
       id="clipPath958">
      <rect
         style="opacity:1;fill:#0a0a0a;fill-opacity:0.25757578;stroke:none;stroke-width:0.87685037;stroke-linecap:round;stroke-linejoin:miter;stroke-miterlimit:4;stroke-dasharray:none;stroke-dashoffset:0;stroke-opacity:1;paint-order:fill markers stroke"
         id="rect960"
         width="821.18506"
         height="212.19092"
         x="-2618.2986"
         y="2998.1711"
         transform="scale(-1,1)" />
    </clipPath>
    <clipPath
       clipPathUnits="userSpaceOnUse"
       id="clipPath1042">
      <rect
         style="opacity:1;fill:#00080a;fill-opacity:0.48989898;stroke:none;stroke-width:1.24605882;stroke-linecap:round;stroke-linejoin:miter;stroke-miterlimit:4;stroke-dasharray:none;stroke-dashoffset:0;stroke-opacity:1;paint-order:fill markers stroke"
         id="rect1044"
         width="1018.3335"
         height="450.66666"
         x="-4209.8335"
         y="2814.1665"
         transform="scale(-1,1)" />
    </clipPath>
    <clipPath
       clipPathUnits="userSpaceOnUse"
       id="clipPath1048">
      <rect
         style="opacity:1;fill:#00080a;fill-opacity:0.48989898;stroke:none;stroke-width:0.83439666;stroke-linecap:round;stroke-linejoin:miter;stroke-miterlimit:4;stroke-dasharray:none;stroke-dashoffset:0;stroke-opacity:1;paint-order:fill markers stroke"
         id="rect1050"
         width="1278.3334"
         height="249.16666"
         x="-2836.1667"
         y="3446.8335"
         transform="scale(-1,1)" />
    </clipPath>
    <clipPath
       clipPathUnits="userSpaceOnUse"
       id="clipPath1058">
      <rect
         style="opacity:1;fill:#00080a;fill-opacity:0.48989898;stroke:none;stroke-width:0.87685037;stroke-linecap:round;stroke-linejoin:miter;stroke-miterlimit:4;stroke-dasharray:none;stroke-dashoffset:0;stroke-opacity:1;paint-order:fill markers stroke"
         id="rect1060"
         width="1020.4996"
         height="257.8334"
         x="-2725.6667"
         y="3275.6667"
         transform="scale(-1,1)" />
    </clipPath>
    <clipPath
       clipPathUnits="userSpaceOnUse"
       id="clipPath1064">
      <rect
         style="opacity:1;fill:#00080a;fill-opacity:0.48989898;stroke:none;stroke-width:0.76714748;stroke-linecap:round;stroke-linejoin:miter;stroke-miterlimit:4;stroke-dasharray:none;stroke-dashoffset:0;stroke-opacity:1;paint-order:fill markers stroke"
         id="rect1066"
         width="938.16656"
         height="134.3334"
         x="-2682.3337"
         y="3189.0002"
         transform="scale(-1,1)" />
    </clipPath>
  </defs>
  <sodipodi:namedview
     pagecolor="#ffffff"
     bordercolor="#666666"
     borderopacity="1"
     objecttolerance="10"
     gridtolerance="10"
     guidetolerance="10"
     inkscape:pageopacity="0"
     inkscape:pageshadow="2"
     inkscape:window-width="1920"
     inkscape:window-height="1036"
     id="namedview22"
     showgrid="false"
     inkscape:showpageshadow="false"
     fit-margin-top="5"
     fit-margin-left="5"
     fit-margin-right="5"
     fit-margin-bottom="5"
     inkscape:zoom="0.16317849"
     inkscape:cx="2576.0984"
     inkscape:cy="-1086.766"
     inkscape:window-x="0"
     inkscape:window-y="0"
     inkscape:window-maximized="0"
     inkscape:current-layer="svg20"
     inkscape:snap-global="true">
    <inkscape:grid
       type="xygrid"
       id="grid15"
       originx="4895.1453"
       originy="1541.6651" />
  </sodipodi:namedview>
  <g
     id="g1239"
     transform="translate(2172.9802,1506.3992)">
    <rect
       y="-1501.3992"
       x="-2167.9802"
       height="1020"
       width="3000"
       id="rect17"
       style="opacity:1;fill:none;fill-opacity:0.41414143;stroke:none;stroke-width:1;stroke-linecap:square;stroke-linejoin:round;stroke-miterlimit:10;stroke-dasharray:none;stroke-dashoffset:0;stroke-opacity:1;paint-order:fill markers stroke" />
    <g
       transform="translate(-2154.3922,-1491.5416)"
       id="g1125">
      <g
         id="g1073"
         transform="matrix(0.97869272,0,0,0.97869272,4124.1093,-2177.111)">
        <path
           clip-path="url(#clipPath1042)"
           style="opacity:1;fill:#0033ad;fill-opacity:1;stroke:none;stroke-width:1.86532795;stroke-linecap:round;stroke-linejoin:miter;stroke-miterlimit:4;stroke-dasharray:none;stroke-dashoffset:0;stroke-opacity:1;paint-order:fill markers stroke"
           id="path908"
           sodipodi:type="arc"
           sodipodi:cx="3702.4392"
           sodipodi:cy="2735.5403"
           sodipodi:rx="495.55899"
           sodipodi:ry="495.14249"
           sodipodi:start="0.20669585"
           sodipodi:end="0.041799763"
           sodipodi:open="true"
           d="m 4187.4499,2837.157 a 495.55899,495.14249 0 0 1 -566.638,386.7625 495.55899,495.14249 0 0 1 -410.1115,-549.7414 495.55899,495.14249 0 0 1 532.8347,-432.0748 495.55899,495.14249 0 0 1 454.0302,514.1278"
           transform="scale(-1,1)" />
        <path
           clip-path="url(#clipPath1048)"
           transform="matrix(-1,0,0,1,-1486.3333,-808.16666)"
           d="m 2701.1167,3645.3237 a 495.55899,495.14249 0 0 1 -566.6381,386.7625 495.55899,495.14249 0 0 1 -410.1115,-549.7414 495.55899,495.14249 0 0 1 532.8348,-432.0747 495.55899,495.14249 0 0 1 454.0302,514.1277"
           sodipodi:open="true"
           sodipodi:end="0.041799763"
           sodipodi:start="0.20669585"
           sodipodi:ry="495.14249"
           sodipodi:rx="495.55899"
           sodipodi:cy="3543.707"
           sodipodi:cx="2216.106"
           sodipodi:type="arc"
           id="path898"
           style="opacity:1;fill:#0756d7;fill-opacity:1;stroke:none;stroke-width:1.86532795;stroke-linecap:round;stroke-linejoin:miter;stroke-miterlimit:4;stroke-dasharray:none;stroke-dashoffset:0;stroke-opacity:1;paint-order:fill markers stroke" />
        <path
           clip-path="url(#clipPath1058)"
           style="opacity:1;fill:#2f83f9;fill-opacity:1;stroke:none;stroke-width:1.86532795;stroke-linecap:round;stroke-linejoin:miter;stroke-miterlimit:4;stroke-dasharray:none;stroke-dashoffset:0;stroke-opacity:1;paint-order:fill markers stroke"
           id="path882"
           sodipodi:type="arc"
           sodipodi:cx="2216.106"
           sodipodi:cy="3543.707"
           sodipodi:rx="495.55899"
           sodipodi:ry="495.14249"
           sodipodi:start="0.20669585"
           sodipodi:end="0.041799763"
           sodipodi:open="true"
           d="m 2701.1167,3645.3237 a 495.55899,495.14249 0 0 1 -566.6381,386.7625 495.55899,495.14249 0 0 1 -410.1115,-549.7414 495.55899,495.14249 0 0 1 532.8348,-432.0747 495.55899,495.14249 0 0 1 454.0302,514.1277"
           transform="matrix(-1,0,0,1,-1486.3333,-808.16666)" />
        <path
           clip-path="url(#clipPath1064)"
           transform="matrix(-1,0,0,1,-1486.3333,-808.16666)"
           d="m 2701.1167,3645.3237 a 495.55899,495.14249 0 0 1 -566.6381,386.7625 495.55899,495.14249 0 0 1 -410.1115,-549.7414 495.55899,495.14249 0 0 1 532.8348,-432.0747 495.55899,495.14249 0 0 1 454.0302,514.1277"
           sodipodi:open="true"
           sodipodi:end="0.041799763"
           sodipodi:start="0.20669585"
           sodipodi:ry="495.14249"
           sodipodi:rx="495.55899"
           sodipodi:cy="3543.707"
           sodipodi:cx="2216.106"
           sodipodi:type="arc"
           id="path868"
           style="opacity:1;fill:#51bcf8;fill-opacity:1;stroke:none;stroke-width:1.86532795;stroke-linecap:round;stroke-linejoin:miter;stroke-miterlimit:4;stroke-dasharray:none;stroke-dashoffset:0;stroke-opacity:1;paint-order:fill markers stroke" />
        <path
           clip-path="url(#clipPath958)"
           transform="matrix(-1,0,0,1,-1486.3333,-808.16666)"
           d="m 2701.1167,3645.3237 a 495.55899,495.14249 0 0 1 -566.6381,386.7625 495.55899,495.14249 0 0 1 -410.1115,-549.7414 495.55899,495.14249 0 0 1 532.8348,-432.0747 495.55899,495.14249 0 0 1 454.0302,514.1277"
           sodipodi:open="true"
           sodipodi:end="0.041799763"
           sodipodi:start="0.20669585"
           sodipodi:ry="495.14249"
           sodipodi:rx="495.55899"
           sodipodi:cy="3543.707"
           sodipodi:cx="2216.106"
           sodipodi:type="arc"
           id="path940"
           style="opacity:1;fill:#9aebfb;fill-opacity:1;stroke:none;stroke-width:1.86532795;stroke-linecap:round;stroke-linejoin:miter;stroke-miterlimit:4;stroke-dasharray:none;stroke-dashoffset:0;stroke-opacity:1;paint-order:fill markers stroke" />
      </g>
      <g
         id="g866"
         transform="translate(2716.6649,-3043.5646)">
        <path
           d="m -1772.1891,3763.5074 c -81.06,163.188 -249.436,275.342 -444.007,275.342 -156.533,0 -296.1109,-72.588 -386.91,-185.939 l 14.469,-9.556 c 13.668,-7.913 30.355,-18.566 49.207,-30.602 78.464,-50.093 194.424,-124.125 286.244,-124.125 73.428,0 146.4531,34.633 209.198,64.391 47.26,22.414 88.688,42.062 120.063,42.062 61.891,0 115.118,-25.995 148.539,-44.562 z"
           id="path823"
           inkscape:connector-curvature="0"
           style="fill:#0033ad" />
        <path
           d="m -1772.0091,3763.7544 c 32.9411,-66.315 51.462,-141.058 51.462,-220.127 0,-13.8 -0.5639,-27.468 -1.6699,-40.982 l -4.715,-1.917 c -36.627,17.35 -73.8541,38.542 -111.1951,59.8 -82.546,46.991 -165.65,94.299 -244.06,101.118 -43.762,3.805 -110.444,-32.109 -179.999,-69.571 -71.782,-38.66 -146.622,-78.968 -202.488,-78.968 -88.598,0 -143.686,21.681 -197.9878,43.054 -13.1168,5.162 -26.1878,10.307 -39.6741,15.123 l -7.9753,6.704 c 7.1071,103.754 46.1565,198.731 107.3883,275.17 l 14.467,-9.554 c 13.6679,-7.913 30.3549,-18.566 49.207,-30.602 78.4639,-50.093 194.4239,-124.125 286.244,-124.125 73.428,0 146.4529,34.633 209.198,64.391 47.2599,22.414 88.6879,42.062 120.0629,42.062 61.891,0 115.118,-25.995 148.539,-44.562 z"
           id="path825"
           inkscape:connector-curvature="0"
           style="fill:#0756d7" />
        <path
           d="m -1722.3981,3502.7854 -4.714,-1.916 c -36.627,17.35 -73.854,38.542 -111.1949,59.799 -82.5461,46.991 -165.6511,94.3 -244.06,101.118 -43.763,3.806 -110.445,-32.109 -180,-69.57 -71.781,-38.66 -146.622,-78.969 -202.488,-78.969 -88.5981,0 -143.685,21.682 -197.9874,43.054 -13.1168,5.163 -26.188,10.307 -39.6743,15.124 l -7.9752,6.704 c -0.7777,-11.353 -1.1729,-22.811 -1.1729,-34.362 0,-28.233 2.3616,-55.916 6.898,-82.86 l 5.9623,1.585 c 100.2024,0 171.6074,-41.308 241.0144,-81.46 69.491,-40.201 136.978,-79.243 229.3581,-74.506 68.8339,3.53 121.445,40.425 178.8759,80.7 78.715,55.201 166.485,116.753 317.492,107.449 2.72,-0.94 5.608,-1.934 8.6341,-2.972 0.384,3.682 0.729,7.376 1.0319,11.082 z"
           id="path827"
           inkscape:connector-curvature="0"
           style="fill:#2f83f9" />
        <path
           d="m -1723.5121,3491.9214 c -3.0259,1.039 -5.913,2.033 -8.634,2.973 -151.006,9.303 -238.776,-52.248 -317.492,-107.449 -57.431,-40.275 -110.0409,-77.17 -178.875,-80.7 -92.3809,-4.738 -159.868,34.304 -229.359,74.505 -69.4059,40.152 -140.811,81.461 -241.014,81.461 l -5.9623,-1.585 c 18.1091,-107.559 70.8755,-203.353 146.4193,-275.5 207.281,-39.3751 218.521,-31.506 374.796,77.895 l 3.397,2.378 c 65.317,45.722 216.802,-11.569 303.544,-44.374 v 0 c 9.902,-3.745 18.96,-7.171 26.95,-10.088 l 0.84,0.099 c 68.66,75.826 114.172,173.006 125.385,280.387 z"
           id="path829"
           inkscape:connector-curvature="0"
           style="fill:#51bcf8" />
        <path
           d="m -1848.9331,3211.5804 -0.84,-0.098 c -7.991,2.918 -17.051,6.344 -26.954,10.089 -86.743,32.806 -238.2289,90.097 -303.545,44.375 l -3.398,-2.378 c -156.274,-109.401 -167.5139,-117.2702 -374.796,-77.895 88.941,-84.9431 209.455,-137.1087 342.152,-137.1087 145.7061,0 276.722,62.8946 367.381,163.0157 z"
           id="path831"
           inkscape:connector-curvature="0"
           style="fill:#9aebfb" />
      </g>
      <path
         style="fill:#0033ad"
         inkscape:connector-curvature="0"
         id="path833"
         d="m 1415.5139,799.5558 v -478.852 h 162.63 v -123.477 h -473.83 v 123.477 h 162.63 v 478.852 z" />
      <path
         style="fill:#0033ad"
         inkscape:connector-curvature="0"
         id="path835"
         d="m 1876.9339,727.2758 20.0799,72.28 h 116.45 v -458.774 h -136.5299 v 249.966 c 0,63.245 -28.11,101.392 -76.29,101.392 -44.1701,0 -69.27,-28.108 -69.27,-86.333 v -265.025 h -136.53 v 318.23 c 0,100.388 64.25,150.583 149.58,150.583 61.24,0 106.41,-29.113 132.51,-82.319 z" />
      <path
         style="fill:#0033ad"
         inkscape:connector-curvature="0"
         id="path837"
         d="m 2346.3039,727.2758 20.08,72.28 h 116.4499 v -458.774 h -136.53 v 249.966 c 0,63.245 -28.11,101.392 -76.3,101.392 -44.17,0 -69.26,-28.108 -69.26,-86.333 v -265.025 h -136.53 v 318.23 c 0,100.388 64.25,150.583 149.58,150.583 61.23,0 106.41,-29.113 132.5101,-82.319 z" />
      <path
         style="fill:#0033ad"
         inkscape:connector-curvature="0"
         id="path839"
         d="m 2668.6739,799.5558 v -245.951 c 0,-65.252 31.1199,-105.408 88.34,-105.408 45.17,0 74.29,28.109 74.29,87.338 v 264.021 h 136.52 v -300.161 c 0,-111.431 -64.24,-168.652 -151.58,-168.652 -62.24,0 -113.44,30.117 -147.57,82.318 l -21.08,-72.279 h -115.45 v 458.774 z" />
    </g>
  </g>
</svg>
